<svg width="572" height="83" viewBox="0 0 572 83" fill="none" xmlns="http://www.w3.org/2000/svg">
<path d="M84.5047 62.8949C84.8666 61.6218 85.2157 60.3691 85.5802 59.1215C87.9459 51.0365 90.7485 43.0994 94.0087 35.3205C96.0925 30.3481 98.3884 25.4726 100.914 20.7016C100.971 20.5945 101.038 20.4899 101.088 20.3776C101.206 20.1021 101.403 19.9975 101.716 20C104.032 20.0128 106.349 20.0154 108.663 20C109.022 19.9975 109.167 20.171 109.312 20.4414C110.992 23.6433 112.611 26.8783 114.103 30.1695C117.427 37.5019 120.295 45.0052 122.784 52.6489C123.839 55.8865 124.827 59.1419 125.721 62.4254C125.747 62.5249 125.783 62.6193 125.807 62.7188C125.848 62.8974 125.776 62.9918 125.587 62.9944C125.442 62.9944 125.297 62.9969 125.153 62.9969C122.857 62.9969 120.561 62.9969 118.268 62.9969C117.57 62.9969 117.567 62.9969 117.417 62.354C116.747 59.4761 115.941 56.634 115.095 53.8046C114.925 53.2357 114.922 53.2331 114.356 53.2331C108.236 53.2331 102.114 53.2331 95.9943 53.2331C95.4487 53.2331 95.4436 53.2331 95.2833 53.7638C94.4146 56.6315 93.6053 59.5144 92.9331 62.4305C92.8039 62.9842 92.8064 62.9944 92.3256 62.9944C89.8642 62.9969 87.4029 62.9944 84.9442 62.9944C84.8201 62.9944 84.696 63.0071 84.5047 62.8923V62.8949ZM97.6541 46.7222C98.5073 46.8396 112.3 46.7962 112.771 46.6636C110.607 40.5966 108.29 34.596 105.237 28.8607" fill="#F5F3ED"/>
<path d="M216.082 42.9918C216.056 41.966 216.244 40.9507 216.519 39.9586C217.599 36.0892 220.087 33.4819 223.901 32.1912C227.723 30.898 231.608 30.8928 235.425 32.1938C239.388 33.5468 241.893 36.2762 242.788 40.3793C243.001 41.3558 243.087 42.3452 243.09 43.3424C243.098 46.869 243.09 50.3931 243.092 53.9197C243.092 54.3741 243.087 54.8312 243.236 55.2727C243.504 56.0621 244.03 56.4595 244.863 56.4802C245.052 56.4854 245.24 56.4724 245.429 56.4647C245.995 56.4387 246 56.4387 246 57.0282C246 58.5214 246 60.0146 246 61.5079C246 61.7572 246 62.0065 245.997 62.2532C245.997 62.422 245.924 62.5207 245.746 62.5492C243.941 62.8297 242.128 63.0452 240.323 62.6038C238.319 62.113 237.012 60.9054 236.585 58.8538C236.575 58.7967 236.551 58.7422 236.528 58.6668C236.467 58.7188 236.412 58.7473 236.381 58.7967C235.291 60.547 233.646 61.578 231.731 62.1986C228.535 63.2322 225.316 63.3023 222.12 62.1961C220.043 61.4767 218.343 60.2484 217.164 58.3734C216.09 56.662 215.791 54.7974 216.032 52.8212C216.252 51.0111 216.973 49.4348 218.241 48.113C219.328 46.9807 220.656 46.2068 222.11 45.6277C223.812 44.9499 225.599 44.6253 227.406 44.3916C229.355 44.1423 231.304 43.8774 233.251 43.6177C233.272 43.6151 233.293 43.6099 233.313 43.6073C235.341 43.1918 236.114 41.4493 235.09 39.6106C234.639 38.7978 233.971 38.1979 233.13 37.8343C230.801 36.8293 228.454 36.7826 226.152 37.9019C224.64 38.6368 223.768 39.8937 223.516 41.5402C223.461 41.8959 223.359 42.0128 222.99 42.0543C220.829 42.2907 218.673 42.5737 216.54 43.0022C216.404 43.0282 216.26 43.0879 216.077 42.9944L216.082 42.9918ZM235.703 49.5309C235.703 49.2374 235.705 49.0504 235.703 48.8635C235.692 48.3467 235.692 48.3519 235.168 48.435C232.962 48.7908 230.754 49.1439 228.549 49.5023C227.621 49.6529 226.694 49.8139 225.832 50.2191C224.894 50.6631 224.14 51.2916 223.765 52.281C223.011 54.2651 223.899 56.1738 225.908 56.9113C226.953 57.2957 228.035 57.3268 229.122 57.2048C231.076 56.9866 232.729 56.1894 233.966 54.639C235.184 53.112 235.637 51.3305 235.703 49.5309Z" fill="#F5F3ED"/>
<path d="M165.596 62.9938C161.954 63.0042 158.927 62.117 156.255 60.0902C153.174 57.7538 151.347 54.5562 150.591 50.6795C150.001 47.6537 150.11 44.6408 151.059 41.7086C152.799 36.3411 156.337 32.9639 161.592 31.6917C165.464 30.7524 169.237 31.1947 172.77 33.2007C175.759 34.8997 177.852 37.452 179.133 40.7459C179.951 42.8507 180.303 45.0545 180.271 47.318C180.229 50.4948 179.493 53.4869 177.812 56.1641C175.559 59.752 172.366 61.8776 168.367 62.7128C167.336 62.9288 166.29 63.0198 165.596 62.9964V62.9938ZM172.978 47.0292C173.013 45.7517 172.807 44.4092 172.363 43.1031C171.275 39.9081 168.561 37.6237 165.06 37.7512C161.907 37.8657 159.678 39.4502 158.444 42.4553C157.269 45.3172 157.289 48.2729 158.216 51.2129C158.645 52.5736 159.371 53.7601 160.417 54.7071C161.867 56.0184 163.568 56.557 165.467 56.5049C168.134 56.4321 170.169 55.1858 171.58 52.839C172.624 51.1036 173.01 49.1705 172.983 47.0266L172.978 47.0292Z" fill="#F5F3ED"/>
<path d="M35.6827 41.4831C35.6827 34.573 35.6827 27.6629 35.6827 20.7528C35.6827 20.0153 35.5808 20 36.4203 20C39.0797 20.0026 41.7367 20 44.396 20C44.5319 20 44.6678 20 44.8037 20.0051C44.9663 20.0102 45.0536 20.1046 45.0609 20.2705C45.0682 20.4338 45.0682 20.5971 45.0682 20.7604C45.0682 34.5806 45.0682 48.4008 45.0682 62.2236C45.0682 62.244 45.0682 62.2644 45.0682 62.2848C45.0682 62.9942 45.0682 62.9967 44.4082 62.9967C42.0788 62.9967 39.7494 62.9967 37.4224 62.9967C36.9566 62.9967 36.4907 62.9891 36.0248 62.9967C35.7773 63.0018 35.6657 62.9023 35.6802 62.6395C35.6899 62.4762 35.6802 62.3129 35.6802 62.1496C35.6802 55.2599 35.6802 48.3702 35.6802 41.4805L35.6827 41.4831Z" fill="#F5F3ED"/>
<path d="M46.9446 20.0944C47.1699 19.9694 47.3363 20.0128 47.4924 20.0128C50.3773 20.0102 53.2647 20.0204 56.1496 20C56.572 19.9975 56.8177 20.148 57.0584 20.4719C58.8963 22.9461 60.3247 25.6345 61.4254 28.504C62.5235 31.371 63.2454 34.3298 63.6038 37.3727C63.9032 39.926 63.9263 42.4818 63.6626 45.0478C63.1788 49.741 61.8733 54.1792 59.6898 58.3649C58.9065 59.8672 58.0029 61.2982 56.9713 62.6449C56.8152 62.849 56.6744 62.9969 56.38 62.9969C53.2699 62.9867 50.1597 62.9918 47.0598 62.9918C46.9753 62.8566 47.0598 62.7852 47.1289 62.7163C49.3841 60.4615 50.856 57.7323 51.9516 54.7837C53.0395 51.853 53.7409 48.8279 54.0839 45.716C54.304 43.7061 54.3834 41.6911 54.2759 39.6786C54.0096 34.6894 52.932 29.8916 50.7101 25.3845C49.7937 23.5251 48.652 21.8212 47.1673 20.3546C47.0956 20.2857 47.0368 20.2041 46.9446 20.0944Z" fill="#F5F3ED"/>
<path d="M33.7531 62.9255C33.5402 63.0224 33.3556 62.9816 33.1761 62.9841C30.3448 62.9867 27.516 62.9739 24.6847 62.9969C24.2205 62.9994 23.9384 62.8592 23.6666 62.4893C20.9686 58.8472 19.1606 54.7969 18.0373 50.4304C17.1345 46.9132 16.7576 43.3374 16.9499 39.7182C17.1961 35.0992 18.2655 30.6663 20.1915 26.4477C21.1686 24.3078 22.3355 22.2776 23.7666 20.403C23.9512 20.1632 24.1231 20 24.4616 20C27.5186 20.0128 30.573 20.0077 33.63 20.0077C33.6864 20.0077 33.7557 19.9872 33.8018 20.1199C33.5633 20.3775 33.3017 20.6529 33.0478 20.9335C31.3398 22.8209 30.1165 25.0041 29.1702 27.3404C27.9392 30.3756 27.157 33.528 26.7441 36.7749C26.5569 38.2516 26.4389 39.7386 26.444 41.2179C26.4722 47.1377 27.5853 52.8279 30.3345 58.1381C31.1731 59.7603 32.2195 61.2396 33.5018 62.548C33.5967 62.6449 33.7326 62.7214 33.7531 62.9204V62.9255Z" fill="#F5F3ED"/>
<path d="M57.0495 20.0102C60.8002 20.0102 64.5535 20.0204 68.3042 20C68.8846 19.9975 69.3347 20.1505 69.7822 20.4846C72.7573 22.7034 75.1736 25.366 77.072 28.452C78.8375 31.3237 79.9982 34.4046 80.462 37.6844C81.5305 45.2233 79.586 52.0149 74.577 58.0109C73.1397 59.7324 71.4989 61.2677 69.6575 62.6143C69.2995 62.877 68.9388 62.9994 68.4723 62.9969C64.5915 62.979 60.7107 62.9867 56.8271 62.9867H56.4366C56.4447 62.7673 56.6346 62.7801 56.7566 62.7265C59.4821 61.5636 61.9772 60.069 64.1359 58.1104C67.694 54.8816 69.9639 50.9616 71.1301 46.4628C71.6047 44.6367 71.8786 42.7877 71.7972 40.9004C71.6752 38.0848 70.9809 35.3839 69.8283 32.7927C67.2899 27.0824 62.9724 22.984 57.0034 20.3979C56.8 20.3086 56.564 20.2602 56.3335 20.0102H57.0495Z" fill="#F5F3ED"/>
<path d="M22.4919 20.0102C21.4373 20.6223 20.3777 21.1477 19.3707 21.7726C14.3658 24.8817 11.0593 29.3273 9.30329 34.9946C8.67955 37.0044 8.29629 39.0653 8.2512 41.1694C8.20361 43.3399 8.57434 45.4645 9.16802 47.5483C10.3479 51.6853 12.4145 55.2841 15.4981 58.2555C17.4068 60.0919 19.5862 61.5227 21.9709 62.6347C22.1462 62.7164 22.3491 62.7597 22.5345 62.9893H21.9859C18.4389 62.9893 14.8944 62.9842 11.3473 62.9969C10.9215 62.9969 10.5833 62.8873 10.2502 62.6169C5.15006 58.4697 1.83098 53.2029 0.498337 46.6709C0.019889 44.3219 -0.0928344 41.9423 0.0699882 39.5601C0.363069 35.3032 1.62557 31.3448 3.83244 27.7077C5.54334 24.8894 7.67005 22.4485 10.2401 20.4081C10.5858 20.1326 10.9365 20 11.3899 20C14.937 20.0179 18.4815 20.0102 22.0285 20.0102C22.1838 20.0102 22.3366 20.0102 22.4919 20.0102Z" fill="#F5F3ED"/>
<path d="M120.194 33.1738C120.372 33.0476 120.572 33.0981 120.756 33.0981C123.036 33.0955 125.313 33.0955 127.593 33.0981C128.144 33.0981 128.15 33.0981 128.355 33.6133C130.137 38.0407 131.748 42.5211 133.213 47.0496C133.855 49.0322 134.486 51.0198 135.051 53.0252C135.083 53.1413 135.136 53.2499 135.197 53.409C135.474 52.8635 135.581 52.3079 135.741 51.7724C137.565 45.6403 139.675 39.599 142.053 33.6386C142.269 33.1006 142.269 33.0981 142.871 33.0981C145.13 33.0981 147.386 33.0981 149.644 33.0981C149.831 33.0981 150.028 33.0577 150.204 33.1612C150.286 33.3809 150.151 33.5552 150.071 33.7371C147.476 39.6142 145.074 45.5594 142.89 51.5856C141.606 55.1315 140.413 58.7027 139.363 62.3169C139.323 62.4533 139.27 62.5871 139.243 62.7235C139.206 62.9129 139.1 63.0038 138.894 62.9988C138.788 62.9963 138.681 62.9988 138.575 62.9988C136.337 62.9988 134.103 62.9988 131.865 62.9988C131.253 62.9988 131.25 62.9963 131.09 62.4406C129.138 55.6493 126.674 49.017 124.029 42.4454C122.855 39.5258 121.635 36.6238 120.356 33.7446C120.276 33.5653 120.146 33.3885 120.194 33.1764V33.1738Z" fill="#F5F3ED"/>
<path d="M198.848 28.3424C198.848 26.9678 198.845 25.5932 198.848 24.2185C198.848 23.7578 198.858 23.7452 199.352 23.7452C201.594 23.7401 203.834 23.7401 206.076 23.7452C206.596 23.7452 206.605 23.7553 206.605 24.2591C206.607 26.7247 206.605 29.1929 206.605 31.6586C206.605 31.9016 206.605 32.1447 206.605 32.3852C206.607 32.9801 206.61 33.0003 207.238 32.9674C209.044 32.8737 210.852 32.8332 212.653 32.6586C212.93 32.6307 213.211 32.6257 213.491 32.6155C214.06 32.5953 214.068 32.5978 214.071 33.1294C214.076 34.7065 214.076 36.2837 214.071 37.8608C214.071 38.4203 214.06 38.4076 213.459 38.4557C211.313 38.6253 209.165 38.7544 207.012 38.8076C206.71 38.8152 206.57 38.9063 206.602 39.1974C206.61 39.2784 206.602 39.3594 206.602 39.4404C206.602 43.6655 206.605 47.8906 206.602 52.1157C206.602 52.9333 206.691 53.7308 207.065 54.4776C207.742 55.8294 208.912 56.5205 210.467 56.6496C211.48 56.7356 212.486 56.6293 213.48 56.4167C214.057 56.2952 214.071 56.3078 214.071 56.8268C214.076 58.5862 214.073 60.3456 214.071 62.1024C214.071 62.5733 214.052 62.6163 213.618 62.6847C210.623 63.1631 207.653 63.1859 204.777 62.1151C201.667 60.9582 199.826 58.7887 199.117 55.7458C198.915 54.875 198.839 53.9915 198.839 53.0979C198.848 48.6298 198.842 44.1617 198.842 39.6936C198.842 39.5518 198.845 39.4101 198.842 39.2683C198.831 38.8152 198.829 38.8202 198.338 38.7823C196.858 38.6683 195.371 38.638 193.896 38.4506C193.438 38.3924 193.422 38.4 193.422 37.9899C193.417 36.3318 193.417 34.6736 193.422 33.0155C193.422 32.5978 193.438 32.5851 193.915 32.6155C194.646 32.6636 195.373 32.7396 196.104 32.7902C196.92 32.8484 197.737 32.8915 198.551 32.9421C198.732 32.9522 198.839 32.8813 198.839 32.7016C198.839 32.5598 198.842 32.4181 198.842 32.2763C198.842 30.9625 198.842 29.6486 198.842 28.3348L198.848 28.3424Z" fill="#F5F3ED"/>
<path d="M184.03 41.5006V20.9579C184.03 20.815 184.028 20.6721 184.03 20.5292C184.043 20.0213 184.048 20.006 184.549 20.0034C185.524 19.9957 186.497 20.0034 187.472 20.0034C188.635 20.0034 189.794 20.0009 190.956 20.0034C191.532 20.0034 191.532 20.0111 191.54 20.5904C191.54 20.6721 191.54 20.7537 191.54 20.8354C191.54 34.6122 191.54 48.3864 191.54 62.1632C191.54 63.0743 191.592 62.9952 190.707 62.9952C188.738 62.9952 186.767 62.9952 184.798 62.9952C184.653 62.9952 184.507 62.9926 184.362 62.9952C184.126 62.9977 184.028 62.8727 184.03 62.6532C184.03 62.4899 184.03 62.3265 184.03 62.1632C184.03 55.2748 184.03 48.3864 184.03 41.498V41.5006Z" fill="#F5F3ED"/>
<line x1="284.307" y1="-4.52552e-08" x2="284.307" y2="83" stroke="#8A8A8A" stroke-width="2.07063"/>
<path d="M324.813 33V11.37H331.563C337.563 11.37 342.543 15.06 342.543 22.17C342.543 29.31 337.563 33 331.563 33H324.813ZM331.353 29.91C335.253 29.91 338.973 27.75 338.973 22.17C338.973 16.62 335.253 14.46 331.353 14.46H328.293V29.91H331.353ZM344.926 33V17.43H348.196V33H344.926ZM344.776 11.13H348.406V14.82H344.776V11.13ZM358.412 38.85C354.152 38.85 351.422 36.96 350.972 33.42H354.272C354.512 35.13 355.982 36.15 358.412 36.15C360.992 36.15 362.522 34.77 362.522 32.34V30.3C361.772 31.44 360.002 32.25 357.932 32.25C353.372 32.25 350.612 29.13 350.612 24.75C350.612 20.31 353.372 17.19 357.842 17.19C359.822 17.19 361.622 18.06 362.522 19.32V17.43H365.792V32.01C365.792 36.3 363.002 38.85 358.412 38.85ZM358.352 29.43C361.022 29.43 362.732 27.57 362.732 24.75C362.732 21.93 361.022 20.04 358.352 20.04C355.682 20.04 353.972 21.9 353.972 24.75C353.972 27.57 355.682 29.43 358.352 29.43ZM368.994 33V17.43H372.264V33H368.994ZM368.844 11.13H372.474V14.82H368.844V11.13ZM383.77 17.43V20.19H379.99V28.02C379.99 29.58 380.89 30.39 382.21 30.39C382.87 30.39 383.53 30.21 383.77 30.15V33C383.5 33.09 382.72 33.24 381.88 33.24C378.82 33.24 376.72 31.65 376.72 28.29V20.19H373.96V17.43H376.72V12.78H379.99V17.43H383.77ZM390.384 33.24C387.234 33.24 385.014 31.41 385.014 28.77C385.014 26.07 386.964 24.39 390.354 23.94L393.684 23.49C394.584 23.37 395.034 22.95 395.034 22.2C395.034 20.85 393.804 19.8 391.764 19.8C389.874 19.8 388.494 20.76 388.344 22.5H385.134C385.494 19.26 387.984 17.19 391.764 17.19C395.754 17.19 398.304 19.47 398.304 22.95V29.13C398.304 30.03 398.694 30.36 399.324 30.36C399.534 30.36 399.834 30.3 399.834 30.3V33C399.834 33 399.054 33.18 398.304 33.18C396.684 33.18 395.544 32.4 395.424 30.72C394.674 32.28 392.724 33.24 390.384 33.24ZM390.894 30.69C393.564 30.69 395.124 28.83 395.124 26.16V25.59L390.894 26.28C389.154 26.55 388.284 27.33 388.284 28.65C388.284 29.85 389.334 30.69 390.894 30.69ZM401.698 33V11.13H404.968V33H401.698ZM424.064 33.24C418.454 33.24 413.444 29.58 413.444 22.17C413.444 14.79 418.544 11.13 424.064 11.13C428.984 11.13 432.884 13.86 433.514 18.72H429.854C429.404 15.96 427.064 14.19 424.034 14.19C420.014 14.19 416.984 17.04 416.984 22.17C416.984 27.33 420.014 30.15 424.034 30.15C427.094 30.15 429.344 28.5 429.854 25.65H433.544C432.734 30.66 428.834 33.24 424.064 33.24ZM442.738 33.24C438.148 33.24 434.908 29.85 434.908 25.2C434.908 20.58 438.148 17.19 442.738 17.19C447.238 17.19 450.568 20.55 450.568 25.2C450.568 29.88 447.238 33.24 442.738 33.24ZM442.738 30.39C445.378 30.39 447.208 28.23 447.208 25.2C447.208 22.17 445.348 20.04 442.738 20.04C440.008 20.04 438.238 22.2 438.238 25.2C438.238 28.23 440.008 30.39 442.738 30.39ZM452.939 33V17.43H456.209V20.1C457.019 18.36 458.579 17.19 460.799 17.19C463.319 17.19 465.119 18.27 465.779 20.28C466.619 18.54 468.479 17.19 470.879 17.19C474.209 17.19 476.369 19.32 476.369 22.5V33H473.099V23.31C473.099 21.33 471.959 20.01 469.979 20.01C467.609 20.01 466.289 22.11 466.289 25.14V33H463.019V23.31C463.019 21.33 461.909 20.01 459.929 20.01C457.559 20.01 456.209 22.14 456.209 25.14V33H452.939ZM479.446 33V17.43H482.716V20.1C483.526 18.36 485.086 17.19 487.306 17.19C489.826 17.19 491.626 18.27 492.286 20.28C493.126 18.54 494.986 17.19 497.386 17.19C500.716 17.19 502.876 19.32 502.876 22.5V33H499.606V23.31C499.606 21.33 498.466 20.01 496.486 20.01C494.116 20.01 492.796 22.11 492.796 25.14V33H489.526V23.31C489.526 21.33 488.416 20.01 486.436 20.01C484.066 20.01 482.716 22.14 482.716 25.14V33H479.446ZM505.082 25.2C505.082 21 507.692 17.19 512.612 17.19C517.442 17.19 519.992 20.79 519.962 24.66C519.962 25.26 519.902 25.98 519.902 25.98H508.322C508.622 28.83 510.332 30.45 512.852 30.45C514.772 30.45 516.302 29.55 516.662 27.96H519.872C519.332 31.35 516.482 33.24 512.762 33.24C507.842 33.24 505.082 29.43 505.082 25.2ZM508.472 23.4H516.452C516.302 21.3 514.952 19.77 512.612 19.77C510.422 19.77 508.952 21.12 508.472 23.4ZM531.591 20.4C531.351 20.34 530.781 20.22 530.031 20.22C527.751 20.22 525.651 22.32 525.651 27.18V33H522.381V17.43H525.651V20.4C526.371 18.54 528.471 17.19 530.451 17.19C531.111 17.19 531.441 17.28 531.591 17.28V20.4ZM539.409 33.24C534.879 33.24 531.729 30 531.729 25.2C531.729 20.43 534.879 17.19 539.409 17.19C543.099 17.19 545.889 19.2 546.429 23.04H543.219C542.889 21.27 541.389 20.04 539.469 20.04C536.799 20.04 535.059 22.08 535.059 25.2C535.059 28.35 536.829 30.39 539.469 30.39C541.419 30.39 542.859 29.25 543.219 27.27H546.429C545.799 31.32 543.069 33.24 539.409 33.24ZM547.776 25.2C547.776 21 550.386 17.19 555.306 17.19C560.136 17.19 562.686 20.79 562.656 24.66C562.656 25.26 562.596 25.98 562.596 25.98H551.016C551.316 28.83 553.026 30.45 555.546 30.45C557.466 30.45 558.996 29.55 559.356 27.96H562.566C562.026 31.35 559.176 33.24 555.456 33.24C550.536 33.24 547.776 29.43 547.776 25.2ZM551.166 23.4H559.146C558.996 21.3 557.646 19.77 555.306 19.77C553.116 19.77 551.646 21.12 551.166 23.4ZM329.823 72V53.43H323.103V50.37H340.023V53.43H333.303V72H329.823ZM347.749 59.4C347.509 59.34 346.939 59.22 346.189 59.22C343.909 59.22 341.809 61.32 341.809 66.18V72H338.539V56.43H341.809V59.4C342.529 57.54 344.629 56.19 346.609 56.19C347.269 56.19 347.599 56.28 347.749 56.28V59.4ZM353.579 72.24C350.429 72.24 348.209 70.41 348.209 67.77C348.209 65.07 350.159 63.39 353.549 62.94L356.879 62.49C357.779 62.37 358.229 61.95 358.229 61.2C358.229 59.85 356.999 58.8 354.959 58.8C353.069 58.8 351.689 59.76 351.539 61.5H348.329C348.689 58.26 351.179 56.19 354.959 56.19C358.949 56.19 361.499 58.47 361.499 61.95V68.13C361.499 69.03 361.889 69.36 362.519 69.36C362.729 69.36 363.029 69.3 363.029 69.3V72C363.029 72 362.249 72.18 361.499 72.18C359.879 72.18 358.739 71.4 358.619 69.72C357.869 71.28 355.919 72.24 353.579 72.24ZM354.089 69.69C356.759 69.69 358.319 67.83 358.319 65.16V64.59L354.089 65.28C352.349 65.55 351.479 66.33 351.479 67.65C351.479 68.85 352.529 69.69 354.089 69.69ZM371.492 72.24C366.812 72.24 364.052 68.88 364.052 64.2C364.052 59.52 366.842 56.19 371.432 56.19C373.412 56.19 375.242 57.09 376.172 58.41V50.13H379.442V72H376.172V69.99C375.482 71.25 373.622 72.24 371.492 72.24ZM371.912 69.39C374.582 69.39 376.412 67.32 376.412 64.2C376.412 61.08 374.582 59.04 371.912 59.04C369.212 59.04 367.412 61.08 367.412 64.2C367.412 67.29 369.212 69.39 371.912 69.39ZM382.669 72V56.43H385.939V72H382.669ZM382.519 50.13H386.149V53.82H382.519V50.13ZM389.195 72V56.43H392.465V59.07C393.545 57.3 395.405 56.19 397.625 56.19C400.925 56.19 403.235 58.38 403.235 61.74V72H399.965V62.46C399.965 60.51 398.735 59.13 396.755 59.13C394.085 59.13 392.465 61.41 392.465 65.16V72H389.195ZM413.286 77.85C409.026 77.85 406.296 75.96 405.846 72.42H409.146C409.386 74.13 410.856 75.15 413.286 75.15C415.866 75.15 417.396 73.77 417.396 71.34V69.3C416.646 70.44 414.876 71.25 412.806 71.25C408.246 71.25 405.486 68.13 405.486 63.75C405.486 59.31 408.246 56.19 412.716 56.19C414.696 56.19 416.496 57.06 417.396 58.32V56.43H420.666V71.01C420.666 75.3 417.876 77.85 413.286 77.85ZM413.226 68.43C415.896 68.43 417.606 66.57 417.606 63.75C417.606 60.93 415.896 59.04 413.226 59.04C410.556 59.04 408.846 60.9 408.846 63.75C408.846 66.57 410.556 68.43 413.226 68.43ZM434.269 72V53.43H427.549V50.37H444.469V53.43H437.749V72H434.269ZM449.535 72.24C444.945 72.24 441.705 68.85 441.705 64.2C441.705 59.58 444.945 56.19 449.535 56.19C454.035 56.19 457.365 59.55 457.365 64.2C457.365 68.88 454.035 72.24 449.535 72.24ZM449.535 69.39C452.175 69.39 454.005 67.23 454.005 64.2C454.005 61.17 452.145 59.04 449.535 59.04C446.805 59.04 445.035 61.2 445.035 64.2C445.035 67.23 446.805 69.39 449.535 69.39ZM466.696 72.24C462.106 72.24 458.866 68.85 458.866 64.2C458.866 59.58 462.106 56.19 466.696 56.19C471.196 56.19 474.526 59.55 474.526 64.2C474.526 68.88 471.196 72.24 466.696 72.24ZM466.696 69.39C469.336 69.39 471.166 67.23 471.166 64.2C471.166 61.17 469.306 59.04 466.696 59.04C463.966 59.04 462.196 61.2 462.196 64.2C462.196 67.23 463.966 69.39 466.696 69.39ZM476.897 72V50.13H480.167V72H476.897ZM483.423 72V50.13H486.693V62.37L492.933 56.43H497.493L491.043 62.49L497.973 72H493.893L488.763 64.68L486.693 66.6V72H483.423ZM499.031 72V56.43H502.301V72H499.031ZM498.881 50.13H502.511V53.82H498.881V50.13ZM513.807 56.43V59.19H510.027V67.02C510.027 68.58 510.927 69.39 512.247 69.39C512.907 69.39 513.567 69.21 513.807 69.15V72C513.537 72.09 512.757 72.24 511.917 72.24C508.857 72.24 506.757 70.65 506.757 67.29V59.19H503.997V56.43H506.757V51.78H510.027V56.43H513.807Z" fill="white"/>
</svg>
