<svg width="240" height="34" viewBox="0 0 240 34" fill="none" xmlns="http://www.w3.org/2000/svg">
<path d="M23.2215 16.9936C23.2215 14.0412 23.2215 11.0889 23.2215 8.13656C23.2215 7.82148 23.1781 7.81494 23.5362 7.81494C24.6706 7.81603 25.804 7.81494 26.9385 7.81494C26.9964 7.81494 27.0544 7.81494 27.1124 7.81712C27.1817 7.8193 27.219 7.85964 27.2221 7.93051C27.2252 8.00028 27.2252 8.07006 27.2252 8.13983C27.2252 14.0445 27.2252 19.9492 27.2252 25.855C27.2252 25.8637 27.2252 25.8724 27.2252 25.8812C27.2252 26.1842 27.2252 26.1853 26.9437 26.1853C25.95 26.1853 24.9563 26.1853 23.9637 26.1853C23.7649 26.1853 23.5662 26.1821 23.3675 26.1853C23.2619 26.1875 23.2143 26.145 23.2205 26.0327C23.2246 25.9629 23.2205 25.8931 23.2205 25.8234C23.2205 22.8797 23.2205 19.9361 23.2205 16.9925L23.2215 16.9936Z" fill="white"/>
<path d="M28.0256 7.85528C28.1217 7.80188 28.1927 7.8204 28.2593 7.8204C29.49 7.81931 30.7217 7.82367 31.9523 7.81496C32.1325 7.81387 32.2373 7.87816 32.34 8.01656C33.124 9.07365 33.7333 10.2223 34.2029 11.4483C34.6713 12.6732 34.9792 13.9373 35.1321 15.2375C35.2599 16.3283 35.2697 17.4203 35.1572 18.5166C34.9508 20.5218 34.3939 22.418 33.4625 24.2064C33.1284 24.8482 32.7429 25.4596 32.3029 26.035C32.2362 26.1222 32.1762 26.1854 32.0506 26.1854C30.7239 26.181 29.3971 26.1832 28.0748 26.1832C28.0388 26.1255 28.0748 26.095 28.1043 26.0655C29.0663 25.1022 29.6942 23.9361 30.1615 22.6763C30.6256 21.4241 30.9248 20.1317 31.0711 18.8021C31.165 17.9434 31.1989 17.0825 31.153 16.2226C31.0395 14.091 30.5797 12.0411 29.6319 10.1155C29.241 9.32103 28.754 8.59306 28.1206 7.96643C28.0901 7.93701 28.065 7.90214 28.0256 7.85528Z" fill="white"/>
<path d="M22.3984 26.1549C22.3076 26.1963 22.2288 26.1789 22.1523 26.1799C20.9445 26.181 19.7378 26.1756 18.53 26.1854C18.332 26.1865 18.2117 26.1265 18.0957 25.9685C16.9448 24.4124 16.1735 22.6819 15.6944 20.8164C15.3093 19.3136 15.1484 17.7859 15.2305 16.2395C15.3355 14.2661 15.7917 12.3721 16.6133 10.5697C17.0301 9.65547 17.5279 8.78806 18.1384 7.98712C18.2171 7.88468 18.2904 7.81494 18.4348 7.81494C19.7389 7.82039 21.0418 7.81821 22.3459 7.81821C22.37 7.81821 22.3995 7.80949 22.4192 7.86616C22.3175 7.97622 22.2059 8.09391 22.0976 8.21378C21.369 9.02017 20.8471 9.95297 20.4434 10.9511C19.9183 12.2479 19.5846 13.5948 19.4085 14.982C19.3286 15.613 19.2783 16.2483 19.2805 16.8803C19.2925 19.4095 19.7673 21.8407 20.9401 24.1095C21.2978 24.8025 21.7442 25.4346 22.2912 25.9936C22.3317 26.035 22.3897 26.0677 22.3984 26.1527V26.1549Z" fill="white"/>
<path d="M32.3362 7.81931C33.9362 7.81931 35.5373 7.82367 37.1372 7.81495C37.3848 7.81387 37.5768 7.87924 37.7677 8.02199C39.0368 8.96999 40.0676 10.1076 40.8774 11.4261C41.6305 12.653 42.1257 13.9693 42.3235 15.3706C42.7793 18.5916 41.9498 21.4933 39.8131 24.0551C39.1999 24.7906 38.5 25.4466 37.7145 26.0219C37.5618 26.1342 37.4079 26.1865 37.209 26.1854C35.5535 26.1778 33.898 26.181 32.2413 26.181H32.0747C32.0782 26.0873 32.1592 26.0928 32.2113 26.0699C33.3739 25.573 34.4382 24.9345 35.3591 24.0976C36.8769 22.7181 37.8452 21.0433 38.3427 19.1212C38.5451 18.341 38.662 17.551 38.6273 16.7446C38.5752 15.5417 38.2791 14.3877 37.7874 13.2806C36.7046 10.8409 34.8628 9.08985 32.3165 7.98494C32.2298 7.9468 32.1291 7.9261 32.0308 7.81931H32.3362Z" fill="white"/>
<path d="M17.5946 7.8193C17.1447 8.08083 16.6927 8.30531 16.2632 8.5723C14.1282 9.90066 12.7177 11.8 11.9686 14.2214C11.7025 15.0801 11.539 15.9606 11.5198 16.8596C11.4995 17.7869 11.6576 18.6947 11.9109 19.585C12.4142 21.3525 13.2958 22.8901 14.6112 24.1596C15.4254 24.9442 16.3551 25.5555 17.3724 26.0307C17.4472 26.0655 17.5337 26.0841 17.6128 26.1821H17.3788C15.8657 26.1821 14.3536 26.18 12.8406 26.1854C12.6589 26.1854 12.5146 26.1385 12.3725 26.023C10.1969 24.2512 8.78106 22.0009 8.21258 19.2101C8.00848 18.2065 7.9604 17.1898 8.02986 16.172C8.15488 14.3532 8.69344 12.662 9.63485 11.1081C10.3647 9.90393 11.2719 8.86107 12.3682 7.9893C12.5157 7.87161 12.6653 7.81494 12.8587 7.81494C14.3718 7.82257 15.8838 7.8193 17.3969 7.8193C17.4632 7.8193 17.5284 7.8193 17.5946 7.8193Z" fill="white"/>
<path d="M59.7 26V10.525H54.1V7.975H68.2V10.525H62.6V26H59.7ZM74.6385 15.5C74.4385 15.45 73.9635 15.35 73.3385 15.35C71.4385 15.35 69.6885 17.1 69.6885 21.15V26H66.9635V13.025H69.6885V15.5C70.2885 13.95 72.0385 12.825 73.6885 12.825C74.2385 12.825 74.5135 12.9 74.6385 12.9V15.5ZM79.4967 26.2C76.8717 26.2 75.0217 24.675 75.0217 22.475C75.0217 20.225 76.6467 18.825 79.4717 18.45L82.2467 18.075C82.9967 17.975 83.3717 17.625 83.3717 17C83.3717 15.875 82.3467 15 80.6467 15C79.0717 15 77.9217 15.8 77.7967 17.25H75.1217C75.4217 14.55 77.4967 12.825 80.6467 12.825C83.9717 12.825 86.0967 14.725 86.0967 17.625V22.775C86.0967 23.525 86.4217 23.8 86.9467 23.8C87.1217 23.8 87.3717 23.75 87.3717 23.75V26C87.3717 26 86.7217 26.15 86.0967 26.15C84.7467 26.15 83.7967 25.5 83.6967 24.1C83.0717 25.4 81.4467 26.2 79.4967 26.2ZM79.9217 24.075C82.1467 24.075 83.4467 22.525 83.4467 20.3V19.825L79.9217 20.4C78.4717 20.625 77.7467 21.275 77.7467 22.375C77.7467 23.375 78.6217 24.075 79.9217 24.075ZM94.4245 26.2C90.5245 26.2 88.2245 23.4 88.2245 19.5C88.2245 15.6 90.5495 12.825 94.3745 12.825C96.0245 12.825 97.5495 13.575 98.3245 14.675V7.775H101.049V26H98.3245V24.325C97.7495 25.375 96.1995 26.2 94.4245 26.2ZM94.7745 23.825C96.9995 23.825 98.5245 22.1 98.5245 19.5C98.5245 16.9 96.9995 15.2 94.7745 15.2C92.5245 15.2 91.0245 16.9 91.0245 19.5C91.0245 22.075 92.5245 23.825 94.7745 23.825ZM103.738 26V13.025H106.463V26H103.738ZM103.613 7.775H106.638V10.85H103.613V7.775ZM109.176 26V13.025H111.901V15.225C112.801 13.75 114.351 12.825 116.201 12.825C118.951 12.825 120.876 14.65 120.876 17.45V26H118.151V18.05C118.151 16.425 117.126 15.275 115.476 15.275C113.251 15.275 111.901 17.175 111.901 20.3V26H109.176ZM129.253 30.875C125.703 30.875 123.428 29.3 123.053 26.35H125.803C126.003 27.775 127.228 28.625 129.253 28.625C131.403 28.625 132.678 27.475 132.678 25.45V23.75C132.053 24.7 130.578 25.375 128.853 25.375C125.053 25.375 122.753 22.775 122.753 19.125C122.753 15.425 125.053 12.825 128.778 12.825C130.428 12.825 131.928 13.55 132.678 14.6V13.025H135.403V25.175C135.403 28.75 133.078 30.875 129.253 30.875ZM129.203 23.025C131.428 23.025 132.853 21.475 132.853 19.125C132.853 16.775 131.428 15.2 129.203 15.2C126.978 15.2 125.553 16.75 125.553 19.125C125.553 21.475 126.978 23.025 129.203 23.025ZM146.738 26V10.525H141.138V7.975H155.238V10.525H149.638V26H146.738ZM159.46 26.2C155.635 26.2 152.935 23.375 152.935 19.5C152.935 15.65 155.635 12.825 159.46 12.825C163.21 12.825 165.985 15.625 165.985 19.5C165.985 23.4 163.21 26.2 159.46 26.2ZM159.46 23.825C161.66 23.825 163.185 22.025 163.185 19.5C163.185 16.975 161.635 15.2 159.46 15.2C157.185 15.2 155.71 17 155.71 19.5C155.71 22.025 157.185 23.825 159.46 23.825ZM173.761 26.2C169.936 26.2 167.236 23.375 167.236 19.5C167.236 15.65 169.936 12.825 173.761 12.825C177.511 12.825 180.286 15.625 180.286 19.5C180.286 23.4 177.511 26.2 173.761 26.2ZM173.761 23.825C175.961 23.825 177.486 22.025 177.486 19.5C177.486 16.975 175.936 15.2 173.761 15.2C171.486 15.2 170.011 17 170.011 19.5C170.011 22.025 171.486 23.825 173.761 23.825ZM182.261 26V7.775H184.986V26H182.261ZM187.7 26V7.775H190.425V17.975L195.625 13.025H199.425L194.05 18.075L199.825 26H196.425L192.15 19.9L190.425 21.5V26H187.7ZM200.707 26V13.025H203.432V26H200.707ZM200.582 7.775H203.607V10.85H200.582V7.775ZM213.02 13.025V15.325H209.87V21.85C209.87 23.15 210.62 23.825 211.72 23.825C212.27 23.825 212.82 23.675 213.02 23.625V26C212.795 26.075 212.145 26.2 211.445 26.2C208.895 26.2 207.145 24.875 207.145 22.075V15.325H204.845V13.025H207.145V9.15H209.87V13.025H213.02Z" fill="white"/>
</svg>
