<svg width="110" height="59" viewBox="0 0 110 59" fill="none" xmlns="http://www.w3.org/2000/svg">
<path d="M48.6104 29.4789C48.6104 19.9969 48.6104 10.5149 48.6104 1.03293C48.6104 0.0210088 48.4716 0 49.6153 0C53.2382 0.00350147 56.8578 0 60.4806 0C60.6658 0 60.8509 0 61.036 0.00700294C61.2574 0.0140059 61.3764 0.14356 61.3864 0.371156C61.3963 0.59525 61.3963 0.819344 61.3963 1.04344C61.3963 20.0074 61.3963 38.9713 61.3963 57.9388C61.3963 57.9668 61.3963 57.9948 61.3963 58.0228C61.3963 58.9962 61.3963 58.9997 60.4972 58.9997C57.3238 58.9997 54.1505 58.9997 50.9805 58.9997C50.3458 58.9997 49.7112 58.9892 49.0765 58.9997C48.7394 59.0067 48.5873 58.8702 48.6071 58.5095C48.6204 58.2854 48.6071 58.0613 48.6071 57.8373C48.6071 48.3833 48.6071 38.9293 48.6071 29.4754L48.6104 29.4789Z" fill="#8F53F0"/>
<path d="M63.9526 0.129545C64.2594 -0.0419566 64.4861 0.0175439 64.6988 0.0175439C68.6289 0.0140438 72.5625 0.0280439 76.4925 4.37341e-05C77.0679 -0.00345629 77.4027 0.203045 77.7305 0.647549C80.2343 4.04257 82.1802 7.7316 83.6797 11.6691C85.1757 15.6032 86.1591 19.6632 86.6473 23.8387C87.0553 27.3423 87.0867 30.8493 86.7275 34.3703C86.0684 40.8104 84.2899 46.9004 81.3153 52.6439C80.2483 54.7055 79.0173 56.669 77.6119 58.517C77.3992 58.797 77.2074 59 76.8064 59C72.5694 58.986 68.3325 58.993 64.1095 58.993C63.9944 58.8075 64.1095 58.7095 64.2036 58.615C67.2759 55.521 69.281 51.7759 70.7735 47.7299C72.2556 43.7084 73.2111 39.5573 73.6784 35.2873C73.9783 32.5293 74.0864 29.7643 73.9399 27.0027C73.5772 20.1567 72.1091 13.5731 69.0822 7.3886C67.8338 4.83708 66.2785 2.49906 64.2559 0.486547C64.1583 0.392047 64.0781 0.280046 63.9526 0.129545Z" fill="#8F53F0"/>
<path d="M45.9818 58.9019C45.6918 59.0349 45.4403 58.9789 45.1957 58.9824C41.3386 58.9859 37.485 58.9684 33.6279 58.9999C32.9956 59.0034 32.6112 58.8109 32.2409 58.3035C28.5655 53.3057 26.1024 47.748 24.5722 41.7563C23.3424 36.9301 22.8288 32.0233 23.0908 27.0571C23.4262 20.7189 24.8831 14.6362 27.5069 8.84754C28.838 5.91119 30.4277 3.12534 32.3772 0.552971C32.6287 0.223988 32.8628 0 33.324 0C37.4885 0.0174991 41.6496 0.0104995 45.8141 0.0104995C45.891 0.0104995 45.9853 -0.0174991 46.0482 0.164491C45.7232 0.517973 45.3669 0.895954 45.021 1.28093C42.6942 3.8708 41.0277 6.86664 39.7385 10.0725C38.0615 14.2373 36.9959 18.563 36.4334 23.0183C36.1784 25.0447 36.0176 27.0851 36.0246 29.115C36.0631 37.2381 37.5793 45.0462 41.3246 52.3328C42.4671 54.5587 43.8925 56.5886 45.6394 58.384C45.7687 58.517 45.9538 58.622 45.9818 58.8949V58.9019Z" fill="#8F53F0"/>
<path d="M77.7184 0.0140414C82.8279 0.0140414 87.9412 0.0280399 93.0507 4.30087e-05C93.8413 -0.0034566 94.4546 0.20652 95.0642 0.664969C99.1171 3.70963 102.409 7.36322 104.995 11.5977C107.4 15.5383 108.981 19.7658 109.613 24.2663C111.069 34.6112 108.42 43.9306 101.596 52.1582C99.638 54.5204 97.4028 56.6272 94.8942 58.475C94.4066 58.8355 93.9152 59.0034 93.2797 58.9999C87.9929 58.9754 82.706 58.9859 77.4155 58.9859H76.8834C76.8945 58.685 77.1532 58.7025 77.3194 58.629C81.0324 57.0332 84.4314 54.9824 87.3722 52.2947C92.2194 47.8642 95.3117 42.4853 96.9004 36.312C97.5469 33.8063 97.9201 31.269 97.8092 28.6793C97.643 24.8158 96.6972 21.1097 95.127 17.5541C91.6689 9.71845 85.7872 4.09458 77.6556 0.545982C77.3785 0.423496 77.0571 0.357003 76.7431 0.0140414H77.7184Z" fill="#8F53F0"/>
<path d="M30.6407 0.0139993C29.204 0.853957 27.7605 1.57492 26.3887 2.43238C19.5705 6.69866 15.066 12.7988 12.6738 20.5755C11.8241 23.3333 11.302 26.1612 11.2406 29.0485C11.1758 32.0269 11.6808 34.9422 12.4896 37.8016C14.0969 43.4783 16.9122 48.4165 21.113 52.4938C23.7133 55.0137 26.6822 56.9771 29.9309 58.503C30.1698 58.615 30.4462 58.6745 30.6987 58.9895H29.9514C25.1193 58.9895 20.2906 58.9825 15.4585 59C14.8783 59 14.4176 58.8495 13.9638 58.4785C7.01591 52.7878 2.49434 45.5607 0.678884 36.5976C0.0270947 33.3743 -0.126468 30.109 0.0953448 26.8401C0.494608 20.9989 2.21451 15.5672 5.22093 10.5765C7.55168 6.70916 10.4489 3.35983 13.9501 0.559971C14.4211 0.181991 14.8988 0 15.5165 0C20.3486 0.0244988 25.1773 0.0139993 30.0094 0.0139993C30.221 0.0139993 30.4291 0.0139993 30.6407 0.0139993Z" fill="#8F53F0"/>
</svg>
